<svg xmlns="http://www.w3.org/2000/svg" viewBox="0 0 2751.27 808.27"><defs><style>.cls-1,.cls-5{fill:#e8452d;}.cls-2,.cls-3{fill:#687892;}.cls-3{stroke:#687892;}.cls-3,.cls-4,.cls-5{stroke-miterlimit:22.93;stroke-width:2.85px;}.cls-4{fill:#fff;stroke:#fff;}.cls-5{stroke:#e8452d;}</style></defs><title>logo</title><g id="Warstwa_2" data-name="Warstwa 2"><g id="Warstwa_1-2" data-name="Warstwa 1"><path class="cls-1" d="M718.35,805.37H690.53V738.72q0-11.78-5.7-17.87a18.46,18.46,0,0,0-14-6.08,33.89,33.89,0,0,0-23.18,8.69,61.41,61.41,0,0,1,1.73,15.26v66.65H621.56V738.72q0-11.78-5.69-17.87a18.26,18.26,0,0,0-13.82-6.08,26.56,26.56,0,0,0-11.2,2.22,39.42,39.42,0,0,0-10.05,7v81.33H553V693.71H580.8l0,8.31a41.5,41.5,0,0,1,12.28-8.12,35.56,35.56,0,0,1,14.41-3.09,39.94,39.94,0,0,1,16.34,3.67,42.17,42.17,0,0,1,14.41,10.63,52.06,52.06,0,0,1,37.13-14.3A52,52,0,0,1,692,693.42a35,35,0,0,1,13.64,8.31,41.38,41.38,0,0,1,9.28,14.49q3.48,8.79,3.48,21.15Z"/><path class="cls-1" d="M854.74,749.54a58,58,0,0,1-4.63,23.28,56.76,56.76,0,0,1-12.75,18.55,60.75,60.75,0,0,1-19,12.36,60,60,0,0,1-23.28,4.54,59.22,59.22,0,0,1-23.18-4.54,60,60,0,0,1-18.94-12.46,57.77,57.77,0,0,1-17.38-41.73,56,56,0,0,1,4.73-22.89,60.14,60.14,0,0,1,12.85-18.74,59.42,59.42,0,0,1,41.92-17.1,60.15,60.15,0,0,1,23.28,4.54,60.78,60.78,0,0,1,19,12.37,56.41,56.41,0,0,1,12.75,18.64A58.23,58.23,0,0,1,854.74,749.54Zm-27.82,0a35,35,0,0,0-9.34-24.15,31.43,31.43,0,0,0-10.11-7.24,30.41,30.41,0,0,0-24.65,0,31.47,31.47,0,0,0-10.12,7.24,35.69,35.69,0,0,0,0,48.3,31.32,31.32,0,0,0,10.12,7.24,30.41,30.41,0,0,0,24.65,0,31.28,31.28,0,0,0,10.11-7.24,34.71,34.71,0,0,0,6.84-10.82A35.13,35.13,0,0,0,826.92,749.54Z"/><path class="cls-1" d="M952.3,705.3l-14.87,23.57a51.82,51.82,0,0,0-9-7.82,17.39,17.39,0,0,0-9.94-3.38,16.13,16.13,0,0,0-5.9,1.25,17.21,17.21,0,0,0-6,4.15,24,24,0,0,0-4.73,7.64A31,31,0,0,0,900,742.39v63H872.13V693.71H900v12a39.83,39.83,0,0,1,11.11-11,24.82,24.82,0,0,1,13.62-3.87,29.07,29.07,0,0,1,14.39,4A55.61,55.61,0,0,1,952.3,705.3Z"/><path class="cls-1" d="M1077.49,749.35c0,1.8-.1,3.67-.29,5.6s-.42,3.93-.68,6H987.27a38.91,38.91,0,0,0,4.34,9.18,30.76,30.76,0,0,0,6.86,7.53,32.24,32.24,0,0,0,9.18,5,33.11,33.11,0,0,0,11.3,1.84A45.79,45.79,0,0,0,1034,781.9a37,37,0,0,0,12.56-7l17.58,17.58a78.37,78.37,0,0,1-22.7,12.27,76.33,76.33,0,0,1-23.48,3.57,59.26,59.26,0,0,1-23.47-4.64,59.88,59.88,0,0,1-18.93-12.55,58.51,58.51,0,0,1-12.65-18.65,58.78,58.78,0,0,1,0-45.78A57.78,57.78,0,0,1,975.68,708a61.41,61.41,0,0,1,18.93-12.56,58.23,58.23,0,0,1,23.18-4.64,60,60,0,0,1,22.6,4.35,61.45,61.45,0,0,1,19.13,12.07,56.46,56.46,0,0,1,18,42.12Zm-29.17-10.82a33.58,33.58,0,0,0-11.69-17.1,30.43,30.43,0,0,0-19-6.47,29.7,29.7,0,0,0-18.74,6.47,33.72,33.72,0,0,0-11.59,17.1Z"/><path class="cls-2" d="M1217.93,802.86a32.13,32.13,0,0,1-9.85,4.06,47.72,47.72,0,0,1-11.21,1.35,50,50,0,0,1-16.61-2.41,23.87,23.87,0,0,1-10.82-7.44,31.64,31.64,0,0,1-5.89-12.75,78.93,78.93,0,0,1-1.84-18.16V718.63H1147V706.07A52,52,0,0,0,1169,689.46q8.4-11,11.49-28.59h9.08v32.65h28.21v25.11h-28.21v50.81a19.18,19.18,0,0,0,1.07,6.95,10.66,10.66,0,0,0,2.8,4.25,9.44,9.44,0,0,0,4,2.13,18.52,18.52,0,0,0,4.73.58,33.65,33.65,0,0,0,7.92-1.16,19.83,19.83,0,0,0,7.92-3.86Z"/><path class="cls-2" d="M1335.39,805.37h-27.82V738.53a27.85,27.85,0,0,0-1.84-10.53,22.39,22.39,0,0,0-4.85-7.53,19.1,19.1,0,0,0-7-4.45,24,24,0,0,0-8.24-1.45,38.42,38.42,0,0,0-12.22,1.94,49.53,49.53,0,0,0-11.26,5.41v83.45h-27.82V645.22h27.82l.19,54.86a41.5,41.5,0,0,1,14.3-7.14,56.76,56.76,0,0,1,15.65-2.32,47.76,47.76,0,0,1,16.42,2.8,39.08,39.08,0,0,1,13.72,8.5,40.3,40.3,0,0,1,9.46,14.3,54.15,54.15,0,0,1,3.48,20.38Z"/><path class="cls-2" d="M1447.25,805.37h-27.82v-6a46.13,46.13,0,0,1-15.56,7,73.36,73.36,0,0,1-16.9,1.93,42.48,42.48,0,0,1-14.68-2.41,33.07,33.07,0,0,1-11.4-7,31.14,31.14,0,0,1-7.44-10.72,34.92,34.92,0,0,1-2.61-13.72A31.91,31.91,0,0,1,1355,758a35.89,35.89,0,0,1,11.3-11.79,52.44,52.44,0,0,1,16.71-7,86.92,86.92,0,0,1,20.57-2.32h16q0-9.85-6.38-15.65t-18.35-5.79a37,37,0,0,0-12,2.12,36.4,36.4,0,0,0-12.36,7.73l-16.42-16.61a63,63,0,0,1,20.57-13.14,64.69,64.69,0,0,1,24-4.64,54.75,54.75,0,0,1,20.65,3.67,42.39,42.39,0,0,1,24.87,25.89q3,9.07,3,23.18Zm-27.82-27.82V756.88h-12.75a72.49,72.49,0,0,0-10.92.78,30.8,30.8,0,0,0-8.89,2.6,16.35,16.35,0,0,0-6,4.74,11,11,0,0,0-2.23,7,11.64,11.64,0,0,0,4.54,9.47q4.54,3.68,11.69,3.67a40.3,40.3,0,0,0,12.27-1.93A59.28,59.28,0,0,0,1419.43,777.55Z"/><path class="cls-2" d="M1570.3,805.37h-27.82V738.72a27.85,27.85,0,0,0-1.84-10.53,21.66,21.66,0,0,0-5-7.53,19.8,19.8,0,0,0-7.08-4.44,23.8,23.8,0,0,0-8.24-1.45,37.15,37.15,0,0,0-12.61,2.22,31.46,31.46,0,0,0-11.25,7v81.33h-27.82V693.71h27.82l.19,8.31a29.5,29.5,0,0,1,6.18-4.64,47.67,47.67,0,0,1,7.63-3.57,50.27,50.27,0,0,1,8.12-2.23,44.08,44.08,0,0,1,8-.77,49.47,49.47,0,0,1,16.33,2.71,39.35,39.35,0,0,1,13.91,8.3,40.38,40.38,0,0,1,9.75,14.49q3.67,8.9,3.67,21.06Z"/><path class="cls-2" d="M1817.77,805.37H1790V738.72q0-11.78-5.69-17.87a18.46,18.46,0,0,0-14-6.08,33.93,33.93,0,0,0-23.18,8.69,61.39,61.39,0,0,1,1.74,15.26v66.65H1721V738.72q0-11.78-5.7-17.87a18.26,18.26,0,0,0-13.82-6.08,26.56,26.56,0,0,0-11.2,2.22,39.42,39.42,0,0,0-10,7v81.33H1652.4V693.71h27.82l0,8.31a41.5,41.5,0,0,1,12.28-8.12,35.56,35.56,0,0,1,14.41-3.09,39.94,39.94,0,0,1,16.34,3.67,42.17,42.17,0,0,1,14.41,10.63,52.06,52.06,0,0,1,37.13-14.3,52,52,0,0,1,16.54,2.61,34.93,34.93,0,0,1,13.64,8.31,41.24,41.24,0,0,1,9.28,14.49q3.48,8.79,3.48,21.15Z"/><path class="cls-2" d="M1937.74,805.37h-27.82v-8.5a29.18,29.18,0,0,1-6.27,4.74,50.14,50.14,0,0,1-7.54,3.47,49.39,49.39,0,0,1-8.11,2.22,42.53,42.53,0,0,1-7.83.78,49.63,49.63,0,0,1-16.32-2.71,38.25,38.25,0,0,1-13.81-8.3,39.79,39.79,0,0,1-9.57-14.49q-3.57-8.9-3.57-21.06V693.71h27.82v66.46a28.05,28.05,0,0,0,1.83,10.53,22.6,22.6,0,0,0,4.83,7.53,18.84,18.84,0,0,0,7,4.44,23.59,23.59,0,0,0,8.21,1.45,32.94,32.94,0,0,0,23.37-9.27V693.71h27.82Z"/><path class="cls-2" d="M2008.06,804.79a37.08,37.08,0,0,1-7.44,2.51,37.46,37.46,0,0,1-8.59,1,42.77,42.77,0,0,1-11.88-1.64,26.17,26.17,0,0,1-10-5.31,25.73,25.73,0,0,1-6.77-9.57,36.18,36.18,0,0,1-2.51-14.2V645h28.4V772.72q0,7,2.8,9.57a9.45,9.45,0,0,0,6.67,2.61,16.73,16.73,0,0,0,9.27-2.9Z"/><path class="cls-2" d="M2079.93,802.86a32.13,32.13,0,0,1-9.85,4.06,47.72,47.72,0,0,1-11.21,1.35,50,50,0,0,1-16.61-2.41,23.81,23.81,0,0,1-10.82-7.44,31.51,31.51,0,0,1-5.89-12.75,78.93,78.93,0,0,1-1.84-18.16V718.63H2009V706.07A52.08,52.08,0,0,0,2031,689.46q8.4-11,11.49-28.59h9.08v32.65h28.21v25.11h-28.21v50.81a19.2,19.2,0,0,0,1.06,6.95,10.77,10.77,0,0,0,2.8,4.25,9.44,9.44,0,0,0,4,2.13,18.54,18.54,0,0,0,4.74.58,33.65,33.65,0,0,0,7.92-1.16,19.83,19.83,0,0,0,7.92-3.86Z"/><path class="cls-2" d="M2125.33,674.2h-29v-29h29Zm-.39,131.17h-28.2V693.52h28.2Z"/><path class="cls-2" d="M2315.81,805.37H2288V738.72q0-11.78-5.7-17.87a18.46,18.46,0,0,0-14-6.08,33.93,33.93,0,0,0-23.19,8.69,61.39,61.39,0,0,1,1.74,15.26v66.65H2219V738.72q0-11.78-5.69-17.87a18.28,18.28,0,0,0-13.82-6.08,26.52,26.52,0,0,0-11.2,2.22,39.42,39.42,0,0,0-10,7v81.33h-27.82V693.71h27.82l0,8.31a41.63,41.63,0,0,1,12.28-8.12,35.63,35.63,0,0,1,14.41-3.09,40,40,0,0,1,16.35,3.67,42.17,42.17,0,0,1,14.41,10.63,52.06,52.06,0,0,1,37.13-14.3,52,52,0,0,1,16.54,2.61,35,35,0,0,1,13.64,8.31,41.38,41.38,0,0,1,9.28,14.49q3.48,8.79,3.48,21.15Z"/><path class="cls-2" d="M2452.2,749.35c0,1.8-.1,3.67-.29,5.6s-.42,3.93-.67,6H2362a38.55,38.55,0,0,0,4.35,9.18,30.37,30.37,0,0,0,6.86,7.53,32.19,32.19,0,0,0,9.17,5,33.13,33.13,0,0,0,11.31,1.84,45.73,45.73,0,0,0,15.06-2.61,36.94,36.94,0,0,0,12.56-7l17.58,17.58a78.24,78.24,0,0,1-22.7,12.27,76.27,76.27,0,0,1-23.47,3.57,59.22,59.22,0,0,1-23.47-4.64,60,60,0,0,1-18.94-12.55,58.68,58.68,0,0,1-12.65-18.65,58.78,58.78,0,0,1,0-45.78A57.78,57.78,0,0,1,2350.39,708a61.53,61.53,0,0,1,18.93-12.56,58.28,58.28,0,0,1,23.19-4.64,60.07,60.07,0,0,1,22.6,4.35,61.4,61.4,0,0,1,19.12,12.07,56.46,56.46,0,0,1,18,42.12ZM2423,738.53a33.52,33.52,0,0,0-11.69-17.1,30.41,30.41,0,0,0-19-6.47,29.75,29.75,0,0,0-18.74,6.47,33.72,33.72,0,0,0-11.59,17.1Z"/><path class="cls-2" d="M2573.14,805.37h-28.4v-5.79a35.38,35.38,0,0,1-11.79,6.47,44.42,44.42,0,0,1-13.52,2,49.26,49.26,0,0,1-21.64-4.74,53.64,53.64,0,0,1-17-12.75A58.27,58.27,0,0,1,2469.68,772a63.61,63.61,0,0,1-4-22.41,59,59,0,0,1,4.55-23.28,61.48,61.48,0,0,1,12.07-18.64,57.08,57.08,0,0,1,17.19-12.46,46.23,46.23,0,0,1,19.9-4.54,50.35,50.35,0,0,1,13.91,1.93,37.08,37.08,0,0,1,11.59,5.41V645h28.21Zm-28-29.94V721.72a35.92,35.92,0,0,0-4.47-2.61,37.89,37.89,0,0,0-5.23-2.12,41.4,41.4,0,0,0-5.43-1.35,28.31,28.31,0,0,0-4.85-.49,32.38,32.38,0,0,0-12.7,2.42,29.17,29.17,0,0,0-10,6.95,31.57,31.57,0,0,0-6.59,10.92,40.89,40.89,0,0,0-2.33,14.1,39.47,39.47,0,0,0,2.33,13.81,33.15,33.15,0,0,0,6.4,10.82,28.11,28.11,0,0,0,9.79,7.05,30.7,30.7,0,0,0,12.51,2.52Q2535.63,783.74,2545.13,775.43Z"/><path class="cls-2" d="M2625.3,674.2h-29v-29h29Zm-.39,131.17H2596.7V693.52h28.21Z"/><path class="cls-2" d="M2741,805.37H2713.2v-6a46.17,46.17,0,0,1-15.55,7,73.51,73.51,0,0,1-16.91,1.93,42.52,42.52,0,0,1-14.68-2.41,33.07,33.07,0,0,1-11.4-7,31.14,31.14,0,0,1-7.44-10.72,34.91,34.91,0,0,1-2.6-13.72,31.91,31.91,0,0,1,4.15-16.51,35.89,35.89,0,0,1,11.3-11.79,52.54,52.54,0,0,1,16.71-7,87,87,0,0,1,20.58-2.32h16q0-9.85-6.37-15.65t-18.36-5.79a37,37,0,0,0-12,2.12,36.4,36.4,0,0,0-12.36,7.73l-16.42-16.61a63,63,0,0,1,20.57-13.14,64.74,64.74,0,0,1,24.06-4.64,54.73,54.73,0,0,1,20.64,3.67A42.39,42.39,0,0,1,2738,720.37q3,9.07,3,23.18Zm-27.82-27.82V756.88h-12.75a72.49,72.49,0,0,0-10.92.78,30.8,30.8,0,0,0-8.89,2.6,16.43,16.43,0,0,0-6,4.74,11,11,0,0,0-2.23,7,11.64,11.64,0,0,0,4.54,9.47q4.55,3.68,11.69,3.67a40.3,40.3,0,0,0,12.27-1.93A59.28,59.28,0,0,0,2713.2,777.55Z"/><path class="cls-2" d="M559,5h49V192.43l1.44.72c5.77-18.74,13.69-27.39,28.83-34.6,20.18-9.36,49-14.41,80.72-14.41,98.73,0,130.44,43.24,130.44,177.29,0,127.57-33.87,169.37-136.21,169.37-57.66,0-87.92-13.69-106.66-46.85h-.72l2.16,41.8H559ZM609.4,307c0,121.08,14.41,142,97.29,142,75,0,91.53-23.06,91.53-131.17,0-108.83-15.85-131.89-90.8-131.89C629.58,185.94,609.4,211.17,609.4,307Z"/><path class="cls-2" d="M1189.56,384.13a120.42,120.42,0,0,1,.72,13.7c0,69.19-37.48,93-144.86,93-121.8,0-149.91-32.43-149.91-174.41,0-139.1,28.83-172.25,151.35-172.25,82.88,0,116,15.86,132.61,64.14,7.92,23.79,10.09,43.25,10.09,118.2H947.4c.72,106.66,13,122.52,97.3,122.52s95.13-7.21,94.41-64.87Zm-50.45-95.85c-.72-46.84-1.44-54.77-7.21-71.35-8.65-24.5-30.27-33.15-84.32-33.15-84.32,0-100.18,16.58-99.46,104.5Z"/><path class="cls-2" d="M1294.05,149.19l-5,38.91,1.44.72c20.9-34.59,47.57-47.56,95.85-47.56,64.15,0,93,30.27,93,95.85v23.06H1431V232.79c0-35.32-15.86-49.73-55.5-49.73-35.31,0-61.26,12.25-72.07,34.59-6.48,13.7-9.37,33.15-9.37,66.31V485.75h-49V149.19Z"/><path class="cls-2" d="M1562.14,149.19l-5,38.91,1.44.72c20.9-34.59,47.57-47.56,95.85-47.56,64.15,0,93,30.27,93,95.85v23.06h-48.29V232.79c0-35.32-15.86-49.73-55.5-49.73-35.31,0-61.26,12.25-72.07,34.59-6.48,13.7-9.37,33.15-9.37,66.31V485.75h-49V149.19Z"/><path class="cls-2" d="M1936.9,505.21c-10.09,36.76-23.06,72.07-33.87,89.37-15.13,25.95-45.4,41.8-80.72,41.8-7.2,0-13-.72-23.78-2.16V593.14c5.77.72,12.25,1.44,15.13,1.44,38.2,0,51.17-18.74,73.52-108.83h-18l-121.8-336.56h51.89l51.89,149.9,26.67,75,12.25,37.48L1903,449h1.44l8.65-37.48,9.37-37.48,18.74-75,38.2-149.9H2032Z"/><path class="cls-1" d="M2110.59,485.75h-49V5h49Z"/><path class="cls-1" d="M2223.73,60.54h-49V5h49Zm0,425.21h-49V149.19h49Z"/><path class="cls-1" d="M2300.84,190.27h-51.17V149.19h51.17V98.74C2300.84,28.83,2331.11,0,2403.9,0c12.25,0,20.9.72,36.75,2.88V43.24c-18-1.44-27.38-2.16-37.47-2.16-38.92,0-53.33,15.13-53.33,53.33v54.78h90.8v41.08h-90.8V485.75h-49Z"/><path class="cls-1" d="M2750.55,384.13a120.42,120.42,0,0,1,.72,13.7c0,69.19-37.48,93-144.86,93-121.8,0-149.91-32.43-149.91-174.41,0-139.1,28.83-172.25,151.35-172.25,82.88,0,116,15.86,132.61,64.14,7.93,23.79,10.09,43.25,10.09,118.2H2508.39c.72,106.66,13,122.52,97.3,122.52s95.13-7.21,94.41-64.87Zm-50.45-95.85c-.72-46.84-1.44-54.77-7.21-71.35-8.65-24.5-30.27-33.15-84.32-33.15-84.32,0-100.18,16.58-99.46,104.5Z"/><path class="cls-3" d="M128.51,64C68.43,65.67,21.17,116.67,21.82,176.78A109.79,109.79,0,0,0,134.6,283.47C195.7,281.78,243,230.7,241.29,170.69A109.79,109.79,0,0,0,128.51,64Z"/><circle class="cls-3" cx="277.77" cy="113.24" r="109.78" transform="translate(1.29 229.58) rotate(-45)"/><path class="cls-3" d="M69.38,146.45C13.75,169-12.69,233.44,9,289.52c23,56.57,87.37,83,143,60.44,56.64-23,83.08-87.4,60.51-143C189.49,150.29,125.08,123.85,69.38,146.45Z"/><path class="cls-3" d="M302.92,49.56c-55.47,23.12-82.58,87.21-59.08,143.57a109.85,109.85,0,0,0,143.6,59.14c56.41-23.52,82.18-88.16,59.05-143.63C423,52.28,358.4,26.43,302.92,49.56Z"/><path class="cls-3" d="M191.25,225.81c-61.1,1.7-108.36,52.77-106.69,112.78A109.9,109.9,0,0,0,197.34,445.36c61.1-1.7,108.36-52.77,106.69-112.86C302.34,271.47,251.33,224.14,191.25,225.81Z"/><path class="cls-3" d="M344.9,162c-60.08,1.67-107.37,51.72-106.7,112.78A109.87,109.87,0,0,0,351,381.57c61.1-1.7,108.36-52.77,106.69-112.86C456,207.68,405,160.35,344.9,162Z"/><circle class="cls-3" cx="302.23" cy="378.66" r="109.78" transform="translate(-179.23 324.62) rotate(-45)"/><path class="cls-3" d="M196.79,124.19a110.84,110.84,0,1,0,144.78,60.06A111,111,0,0,0,196.79,124.19Z"/><path class="cls-4" d="M129.88,84.93a89.07,89.07,0,1,0,90.61,87.49A89,89,0,0,0,129.88,84.93ZM157.59,232a64.48,64.48,0,0,1-83.67-35.24c-12.34-33,2.59-70.43,35.21-83.72s70.4,2.67,83.69,35.3A64.47,64.47,0,0,1,157.59,232Z"/><path class="cls-5" d="M109.13,113c-32.62,13.29-47.55,50.71-35.21,83.72a64.19,64.19,0,1,0,118.9-48.42C179.53,115.71,141.76,99.75,109.13,113Z"/><path class="cls-4" d="M337.76,47.41A89,89,0,0,0,210.43,171.34c.56.65,1.18,1.25,1.75,1.88,1.25,1.36,2.45,2.75,3.79,4,.09.09.2.17.3.26a89,89,0,0,0,63.38,25,86.56,86.56,0,0,0,40.54-10.93l.56-.29c1.22-.68,2.38-1.45,3.57-2.19a88,88,0,0,0,41.73-64.17,90.66,90.66,0,0,0,1.08-13A88.51,88.51,0,0,0,337.76,47.41Zm2.07,65.9c.13,35.23-28.79,64.29-64,64.42a64.48,64.48,0,0,1-64.43-63.95c-.13-35.23,28.73-64.37,64-64.5S339.7,78.08,339.83,113.31Z"/><path class="cls-5" d="M275.34,49.28c-35.23.13-64.09,29.27-64,64.5a64.48,64.48,0,0,0,64.43,63.95c35.23-.13,64.15-29.19,64-64.42S310.57,49.15,275.34,49.28Z"/><path class="cls-4" d="M268.48,296.1A89.07,89.07,0,0,0,335.89,461c45-18.41,66.59-69.78,48.74-116.15A89.06,89.06,0,0,0,268.48,296.1Zm98.16,82.78a64.48,64.48,0,0,1-63.95,64.43c-35.23.13-64.37-28.73-64.5-64a64.23,64.23,0,0,1,128.45-.47Z"/><path class="cls-5" d="M302.22,314.93a63.88,63.88,0,0,0-64,64.42c.13,35.23,29.27,64.09,64.5,64a64.19,64.19,0,0,0-.47-128.38Z"/><path class="cls-4" d="M192.7,246.94a89.1,89.1,0,0,0,3.13,178.17c48.71-.86,87.32-41.95,87.49-90.68A89,89,0,0,0,192.7,246.94Zm27.55,147.43c-32.64,13.26-70.4-2.73-83.67-35.36a64.52,64.52,0,0,1,35.3-83.64c32.63-13.27,70.46,2.7,83.7,35.27S252.88,381.1,220.25,394.37Z"/><path class="cls-5" d="M171.88,275.37A64.52,64.52,0,0,0,136.58,359c13.27,32.63,51,48.62,83.67,35.36s48.6-51.09,35.33-83.73S204.51,262.1,171.88,275.37Z"/><path class="cls-4" d="M346.69,182.92A89.06,89.06,0,0,0,349.81,361c49.74-.88,88.36-40.88,87.49-90.61A89.09,89.09,0,0,0,346.69,182.92Zm23.5,149.23c-32.68,13.15-70.38-3-83.53-35.65-12.59-34,2.9-70.36,35.59-83.51s70.38,3,83.51,35.59S402.88,319,370.19,332.15Z"/><path class="cls-5" d="M322.25,213c-32.69,13.15-48.18,49.49-35.59,83.51,13.15,32.68,50.85,48.8,83.53,35.65s48.72-50.89,35.57-83.57S354.93,199.83,322.25,213Z"/><path class="cls-4" d="M108.88,159.47A89.1,89.1,0,1,0,199.56,247,89.11,89.11,0,0,0,108.88,159.47Zm65,88.83c.13,35.16-28.79,64.3-64,64.43s-64.3-28.8-64.43-64c.89-35.23,28.79-64.37,64-64.49S173.72,213.07,173.85,248.3Z"/><path class="cls-5" d="M109.35,184.28c-35.16.12-63.06,29.26-63.95,64.49.13,35.16,29.27,64.09,64.43,64s64.15-29.27,64-64.43S144.58,184.15,109.35,184.28Z"/><path class="cls-4" d="M344.07,62c-49.74.87-88.36,40.94-87.49,90.61A89.06,89.06,0,1,0,344.07,62Zm66.3,88.16c.13,35.23-28.72,64.37-63.95,64.5s-64.3-28.8-64.43-64a63.83,63.83,0,0,1,64-64.42A64.51,64.51,0,0,1,410.37,150.18Z"/><path class="cls-5" d="M346,86.23a63.83,63.83,0,0,0-64,64.42c.13,35.23,29.2,64.16,64.43,64s64.08-29.27,63.95-64.5A64.51,64.51,0,0,0,346,86.23Z"/><path class="cls-4" d="M201.18,132.84a89.1,89.1,0,0,0,66.7,165.24c45.11-18.21,67.46-70.8,49.25-115.92A89.11,89.11,0,0,0,201.18,132.84Z"/><path class="cls-5" d="M210.26,155c-32.7,13.13-48.76,50.86-35.63,83.55s50.79,48.78,83.48,35.66a64.53,64.53,0,0,0,35.66-83.49C280.64,158.07,243,141.92,210.26,155Z"/></g></g></svg>